{"title":"Fashion Waley Babu - Ft Goodshah/ BADSHAH - Team truHD HEVC","uid":12402352,"size":39626678,"categoryP":"video","categoryS":"music_videos","magnet":"?xt=urn:btih:b3833f042a15b22503f7947e2d581b2d15664397&amp;dn=Fashion+Waley+Babu+-+Ft+Goodshah%2F+BADSHAH+-+Team+truHD+HEVC&amp;tr=udp%3A%2F%2Ftracker.openbittorrent.com%3A80&amp;tr=udp%3A%2F%2Fopen.demonii.com%3A1337&amp;tr=udp%3A%2F%2Ftracker.coppersurfer.tk%3A6969&amp;tr=udp%3A%2F%2Fexodus.desync.com%3A6969","seeders":0,"leechers":1,"uploader":"Aainul","files":5,"time":1442046914,"description":"Fashion Waley Babu - Ft Goodshah &amp; BADSHAH - Team truHD HEVC \n\nSource: WEB-DL \n\nEncoder: truHD HEVC Encoding Team \n\nEncoded File Info: \n\nGeneral \n\nFormat                                   : MPEG-4 \nFormat profile                           : Base Media \nCodec ID                                 : iso4 \nFile size                                : 37.6 MiB \nDuration                                 : 3mn 50s \nOverall bit rate                         : 1 365 Kbps \nEncoded date                             : UTC 2015-09-07 16:34:15 \nTagged date                              : UTC 2015-09-07 16:34:15 \n\nVideo \nID                                       : 1 \nFormat                                   : HEVC \nFormat/Info                              : High Efficiency Video Coding \nCodec ID                                 : hvc1 \nCodec ID/Info                            : High Efficiency Video Coding \nDuration                                 : 3mn 50s \nBit rate                                 : 1 170 Kbps \nMaximum bit rate                         : 3 729 Kbps \nWidth                                    : 1 920 pixels \nHeight                                   : 1 080 pixels \nDisplay aspect ratio                     : 16:9 \nFrame rate mode                          : Constant \nFrame rate                               : 25.000 fps \nBits/(Pixel*Frame)                       : 0.023 \nStream size                              : 32.2 MiB (86%) \nTitle                                    : Video \nEncoded date                             : UTC 2015-09-07 16:34:15 \nTagged date                              : UTC 2015-09-07 16:34:20 \n\nAudio \nID                                       : 2 \nFormat                                   : AC-3 \nFormat/Info                              : Audio Coding 3 \nMode extension                           : CM (complete main) \nFormat settings, Endianness              : Big \nCodec ID                                 : ac-3 \nDuration                                 : 3mn 50s \nBit rate mode                            : Constant \nBit rate                                 : 192 Kbps \nMaximum bit rate                         : 201 Kbps \nChannel(s)                               : 6 channels \nChannel positions                        : Front: L C R, Side: L R, LFE \nSampling rate                            : 44.1 KHz \nBit depth                                : 16 bits \nCompression mode                         : Lossy \nStream size                              : 5.28 MiB (14%) \nTitle                                    :   \nEncoded date                             : UTC 2015-09-07 16:34:18 \nTagged date                              : UTC 2015-09-07 16:34:20 \n\n\nScreenShots: \n &lt;a href=&quot;\nhttp://i.imgur.com/fsckdHX.jpg&quot; rel=&quot;nofollow&quot; target=&quot;_NEW&quot;&gt;\nhttp://i.imgur.com/fsckdHX.jpg&lt;/a&gt;\n\nLike Us On FB And Request Accepted\n\nKickAssTorrents:    &lt;a href=&quot;\nhttps://kat.cr/user/Aainul/&quot; rel=&quot;nofollow&quot; target=&quot;_NEW&quot;&gt;\nhttps://kat.cr/user/Aainul/&lt;/a&gt;\nGloTorrents:    &lt;a href=&quot;\nhttps://glodls.to/user/Aainul&quot; rel=&quot;nofollow&quot; target=&quot;_NEW&quot;&gt;\nhttps://glodls.to/user/Aainul&lt;/a&gt;\nThePirateBay:    &lt;a href=&quot;\nhttps://thepiratebay.vg/user/Aainul/&quot; rel=&quot;nofollow&quot; target=&quot;_NEW&quot;&gt;\nhttps://thepiratebay.vg/user/Aainul/&lt;/a&gt;\n1337x Torrents:    &lt;a href=&quot;\nhttp://1337.to/user/Aainul/&quot; rel=&quot;nofollow&quot; target=&quot;_NEW&quot;&gt;\nhttp://1337.to/user/Aainul/&lt;/a&gt;\n\n\nNote: All Videos Uploaded By Me Are For Review Purpose. If You Like IT, Google IT And Buy IT - Thanks\n\n\nKing Regards\ntruHD HEVC Team\n\nShare Among Friends And Relatives","torrent":{"xt":"urn:btih:b3833f042a15b22503f7947e2d581b2d15664397","amp;dn":"Fashion+Waley+Babu+-+Ft+Goodshah%2F+BADSHAH+-+Team+truHD+HEVC","amp;tr":["udp%3A%2F%2Ftracker.openbittorrent.com%3A80","udp%3A%2F%2Fopen.demonii.com%3A1337","udp%3A%2F%2Ftracker.coppersurfer.tk%3A6969","udp%3A%2F%2Fexodus.desync.com%3A6969"],"infoHash":"b3833f042a15b22503f7947e2d581b2d15664397","infoHashBuffer":{"type":"Buffer","data":[179,131,63,4,42,21,178,37,3,247,148,126,45,88,27,45,21,102,67,151]},"announce":[],"urlList":[]}}